<svg id="레이어_1" data-name="레이어 1" xmlns="http://www.w3.org/2000/svg" viewBox="0 0 73.4 51.58"><defs><style>.cls-1{fill:#fff;}</style></defs><path class="cls-1" d="M28.51,39.62h-7V26.78a6.3,6.3,0,1,0-12.6,0V39.62h-7V26.78a13.3,13.3,0,1,1,26.6,0Z" transform="translate(-1.91 -0.87)"/><path class="cls-1" d="M39.23,39.62h-7V14.17A13.32,13.32,0,0,1,45.53.87v7a6.31,6.31,0,0,0-6.3,6.3v.9a13.16,13.16,0,0,1,6.3-1.6v7a6.31,6.31,0,0,0-6.3,6.31Z" transform="translate(-1.91 -0.87)"/><rect class="cls-1" x="46.79" y="25.91" width="7" height="25.68"/><path class="cls-1" d="M62,40.08A13.3,13.3,0,1,1,75,24.17h0A13.3,13.3,0,0,1,64.6,39.82,12.91,12.91,0,0,1,62,40.08Zm0-19.61a5.83,5.83,0,0,0-1.25.13A6.3,6.3,0,1,0,63.23,33a6.32,6.32,0,0,0,5-7.42h0A6.32,6.32,0,0,0,62,20.47Z" transform="translate(-1.91 -0.87)"/></svg>